<svg width="29" height="25" viewBox="0 0 29 25" fill="none" xmlns="http://www.w3.org/2000/svg">
<path d="M20.9527 2C21.6808 1.99939 22.4017 2.14413 23.0731 2.42575C23.7445 2.70736 24.3529 3.12018 24.8627 3.64C25.9131 4.70638 26.5019 6.14316 26.5019 7.64C26.5019 9.13685 25.9131 10.5736 24.8627 11.64L14.5027 22.13L4.1427 11.64C3.09229 10.5736 2.50349 9.13685 2.50349 7.64C2.50349 6.14316 3.09229 4.70638 4.1427 3.64C4.6528 3.12055 5.26128 2.70795 5.93262 2.42629C6.60395 2.14464 7.32468 1.99957 8.0527 1.99957C8.78073 1.99957 9.50146 2.14464 10.1728 2.42629C10.8441 2.70795 11.4526 3.12055 11.9627 3.64L14.5027 6.24L17.0327 3.66C17.5409 3.13399 18.15 2.71586 18.8236 2.43064C19.4971 2.14542 20.2213 1.99895 20.9527 2ZM20.9527 2.68285e-06C19.9583 -0.000840038 18.9738 0.196858 18.0568 0.581505C17.1398 0.966151 16.3089 1.53 15.6127 2.24L14.5027 3.36L13.3927 2.24C12.6957 1.53129 11.8645 0.968412 10.9477 0.584193C10.0309 0.199974 9.04677 0.00209743 8.0527 0.00209743C7.05864 0.00209743 6.07452 0.199974 5.15772 0.584193C4.24091 0.968412 3.40976 1.53129 2.7127 2.24C1.29458 3.68363 0.5 5.62636 0.5 7.65C0.5 9.67364 1.29458 11.6164 2.7127 13.06L14.5027 25L26.2927 13.06C27.7108 11.6164 28.5054 9.67364 28.5054 7.65C28.5054 5.62636 27.7108 3.68363 26.2927 2.24C25.5958 1.53091 24.7648 0.967646 23.8479 0.583064C22.9311 0.198482 21.9469 0.000276098 20.9527 2.68285e-06Z" fill="#0259EB"/>
</svg>