<svg width="32" height="32" viewBox="0 0 32 32" fill="none" xmlns="http://www.w3.org/2000/svg">
<path d="M6.66797 8.9165C6.25376 8.9165 5.91797 9.25229 5.91797 9.6665C5.91797 10.0807 6.25376 10.4165 6.66797 10.4165V8.9165ZM25.3346 10.4165C25.7488 10.4165 26.0846 10.0807 26.0846 9.6665C26.0846 9.25229 25.7488 8.9165 25.3346 8.9165V10.4165ZM6.66797 10.4165H25.3346V8.9165H6.66797V10.4165Z" fill="white"/>
<path d="M6.66797 15.25C6.25376 15.25 5.91797 15.5858 5.91797 16C5.91797 16.4142 6.25376 16.75 6.66797 16.75V15.25ZM25.3346 16.75C25.7488 16.75 26.0846 16.4142 26.0846 16C26.0846 15.5858 25.7488 15.25 25.3346 15.25V16.75ZM6.66797 16.75H25.3346V15.25H6.66797V16.75Z" fill="white"/>
<path d="M6.66797 21.583C6.25376 21.583 5.91797 21.9188 5.91797 22.333C5.91797 22.7472 6.25376 23.083 6.66797 23.083V21.583ZM25.3346 23.083C25.7488 23.083 26.0846 22.7472 26.0846 22.333C26.0846 21.9188 25.7488 21.583 25.3346 21.583V23.083ZM6.66797 23.083H25.3346V21.583H6.66797V23.083Z" fill="white"/>
</svg>